<svg width="50" height="49" viewBox="0 0 50 49" fill="none" xmlns="http://www.w3.org/2000/svg">
<path d="M25 0C11.1928 0 0 10.8431 0 24.2188C0 37.5944 11.1928 48.4375 25 48.4375C38.8072 48.4375 50 37.5944 50 24.2188C50 10.8431 38.8072 0 25 0ZM36.5879 16.4707C36.2117 20.3003 34.5838 29.5936 33.7552 33.8828C33.4048 35.6977 32.7147 36.3063 32.0468 36.3657C30.5952 36.4952 29.4925 35.4363 28.0864 34.5434C25.8861 33.1461 24.643 32.2763 22.5072 30.9128C20.0389 29.3371 21.639 28.4714 23.0457 27.0554C23.4138 26.685 29.8105 21.0485 29.9343 20.5372C29.9497 20.4732 29.9645 20.2345 29.8179 20.1091C29.6714 19.9837 29.456 20.0262 29.3003 20.0603C29.0797 20.1088 25.5646 22.3595 18.7551 26.8124C17.7575 27.4761 16.8538 27.7994 16.0441 27.7825C15.1514 27.7639 13.4344 27.2937 12.1579 26.8916C10.5922 26.3986 9.34788 26.138 9.45625 25.3007C9.5127 24.8645 10.1327 24.4185 11.3161 23.9628C18.6042 20.8868 23.464 18.8588 25.8956 17.8788C32.8383 15.0813 34.2809 14.5953 35.2213 14.5791C35.4281 14.5758 35.8905 14.6254 36.19 14.8608C36.3893 15.0286 36.5162 15.2626 36.5459 15.5167C36.5966 15.8322 36.6107 16.1522 36.5879 16.4707Z" fill="#383838"/>
</svg>
