<svg width="50" height="44" viewBox="0 0 50 44" fill="none" xmlns="http://www.w3.org/2000/svg">
<path d="M42.5112 6.35742C37.8348 2.25586 31.6071 0 24.9888 0C11.3281 0 0.212054 9.72656 0.212054 21.6797C0.212054 25.498 1.35045 29.2285 3.51562 32.5195L0 43.75L13.1362 40.7324C16.7522 42.4609 20.8259 43.3691 24.9777 43.3691H24.9888C38.6384 43.3691 50 33.6426 50 21.6895C50 15.8984 47.1875 10.459 42.5112 6.35742ZM24.9888 39.7168C21.2835 39.7168 17.6562 38.8477 14.4978 37.207L13.75 36.8164L5.95982 38.6035L8.03571 31.9531L7.54464 31.2695C5.47991 28.3984 4.39732 25.0879 4.39732 21.6797C4.39732 11.748 13.6384 3.66211 25 3.66211C30.5022 3.66211 35.6696 5.53711 39.5536 8.94531C43.4375 12.3535 45.8259 16.875 45.8147 21.6895C45.8147 31.6309 36.3393 39.7168 24.9888 39.7168ZM36.2835 26.2207C35.6696 25.9473 32.6228 24.6387 32.0536 24.4629C31.4844 24.2773 31.0714 24.1895 30.6585 24.7363C30.2455 25.2832 29.0625 26.4941 28.6942 26.8652C28.3371 27.2266 27.9688 27.2754 27.3549 27.002C23.7165 25.4102 21.3281 24.1602 18.9286 20.5566C18.2924 19.5996 19.5647 19.668 20.7478 17.5977C20.9487 17.2363 20.8482 16.9238 20.692 16.6504C20.5357 16.377 19.2969 13.7109 18.7835 12.627C18.2812 11.5723 17.7679 11.7188 17.3884 11.6992C17.0312 11.6797 16.6183 11.6797 16.2054 11.6797C15.7924 11.6797 15.1228 11.8164 14.5536 12.3535C13.9844 12.9004 12.3884 14.209 12.3884 16.875C12.3884 19.541 14.6094 22.1191 14.9107 22.4805C15.2232 22.8418 19.2746 28.3105 25.4911 30.6641C29.4196 32.1484 30.9598 32.2754 32.9241 32.0215C34.1183 31.8652 36.5848 30.7129 37.0982 29.4434C37.6116 28.1738 37.6116 27.0898 37.4554 26.8652C37.3103 26.6211 36.8973 26.4844 36.2835 26.2207Z" fill="#383838"/>
</svg>
